<svg width="48" height="48" viewBox="0 0 48 48" fill="none" xmlns="http://www.w3.org/2000/svg">
<rect width="48" height="48" rx="24" fill="#E6E9FC" fill-opacity="0.4"/>
<path d="M24.0005 13.7602C22.8123 13.7602 21.6728 14.2322 20.8326 15.0724C19.9925 15.9125 19.5205 17.052 19.5205 18.2402C19.5205 19.4284 19.9925 20.5679 20.8326 21.408C21.6728 22.2482 22.8123 22.7202 24.0005 22.7202C25.1886 22.7202 26.3281 22.2482 27.1683 21.408C28.0085 20.5679 28.4805 19.4284 28.4805 18.2402C28.4805 17.052 28.0085 15.9125 27.1683 15.0724C26.3281 14.2322 25.1886 13.7602 24.0005 13.7602ZM16.9605 18.2402C16.9605 16.3731 17.7022 14.5824 19.0224 13.2622C20.3427 11.9419 22.1333 11.2002 24.0005 11.2002C25.8676 11.2002 27.6582 11.9419 28.9785 13.2622C30.2988 14.5824 31.0405 16.3731 31.0405 18.2402C31.0405 20.1073 30.2988 21.898 28.9785 23.2182C27.6582 24.5385 25.8676 25.2802 24.0005 25.2802C22.1333 25.2802 20.3427 24.5385 19.0224 23.2182C17.7022 21.898 16.9605 20.1073 16.9605 18.2402ZM12.4805 32.9602C12.4805 31.2628 13.1548 29.6349 14.355 28.4347C15.5552 27.2345 17.1831 26.5602 18.8805 26.5602H29.1205C30.8179 26.5602 32.4457 27.2345 33.646 28.4347C34.8462 29.6349 35.5205 31.2628 35.5205 32.9602V35.8002C35.5205 36.3525 35.0728 36.8002 34.5205 36.8002H13.4805C12.9282 36.8002 12.4805 36.3525 12.4805 35.8002V32.9602ZM18.8805 29.1202C17.862 29.1202 16.8853 29.5248 16.1652 30.2449C15.445 30.965 15.0405 31.9418 15.0405 32.9602V34.2402H32.9605V32.9602C32.9605 31.9418 32.5559 30.965 31.8358 30.2449C31.1156 29.5248 30.1389 29.1202 29.1205 29.1202H18.8805Z" fill="#7188D9"/>
</svg>
