<svg width="72" height="72" viewBox="0 0 72 72" fill="none" xmlns="http://www.w3.org/2000/svg">
<g clip-path="url(#clip0_10_3856)">
<path d="M35.7754 66.825C20.0816 66.825 3.15039 56.9813 3.15039 35.3813C3.15039 13.7812 20.0816 3.9375 35.7754 3.9375C44.4941 3.9375 52.5379 6.80625 58.5004 12.0375C64.9691 17.775 68.4004 25.875 68.4004 35.3813C68.4004 44.8875 64.9691 52.9313 58.5004 58.6688C52.5379 63.9 44.4379 66.825 35.7754 66.825Z" fill="url(#paint0_radial_10_3856)"/>
<path d="M62.7132 16.6895C65.7113 21.527 67.2751 27.287 67.2751 33.6938C67.2751 43.2001 63.8438 51.2438 57.3751 56.9813C51.4126 62.2126 43.3126 65.1376 34.6501 65.1376C24.4913 65.1376 13.8376 61.0032 7.54883 52.2338C13.6013 62.1676 24.9863 66.8251 35.7751 66.8251C44.4376 66.8251 52.5376 63.9001 58.5001 58.6688C64.9688 52.9313 68.4001 44.8876 68.4001 35.3813C68.4001 28.2151 66.4482 21.8476 62.7132 16.6895Z" fill="#EB8F00"/>
<path d="M19.333 54.4158C22.933 48.1664 30.5155 45.5958 35.9999 45.5958C41.4843 45.5958 49.0668 48.1664 52.6668 54.4158C53.173 55.3046 54.6187 54.9164 54.4555 53.9039C53.0718 45.4664 43.768 40.7133 35.9999 40.4039C27.7874 40.1058 19.1643 45.9389 17.5443 53.9039C17.3474 54.8996 18.8268 55.3046 19.333 54.4158ZM24.7499 23.0283C22.393 23.0283 20.2499 25.0196 20.2499 28.3271C20.2499 31.6346 22.393 33.6202 24.7499 33.6202C27.1124 33.6202 29.2499 31.6289 29.2499 28.3271C29.2499 25.0252 27.1349 23.0283 24.7499 23.0283Z" fill="#422B0D"/>
<path d="M24.5536 25.2398C24.1684 25.0566 23.7264 25.033 23.324 25.1741C22.9215 25.3153 22.5911 25.6098 22.4048 25.9935C22.1067 26.6179 22.2417 27.366 22.7423 27.8498C23.5411 28.2323 24.5029 27.8948 24.8911 27.096C25.1892 26.4717 25.0542 25.7235 24.5536 25.2398Z" fill="#896024"/>
<path d="M46.3496 23.0283C43.9927 23.0283 41.8496 25.0196 41.8496 28.3271C41.8496 31.6346 43.9927 33.6202 46.3496 33.6202C48.7065 33.6202 50.8496 31.6289 50.8496 28.3271C50.8496 25.0252 48.7065 23.0283 46.3496 23.0283Z" fill="#422B0D"/>
<path d="M46.1249 25.2398C45.7397 25.0566 45.2977 25.033 44.8953 25.1741C44.4928 25.3153 44.1624 25.6098 43.9761 25.9935C43.678 26.6179 43.813 27.366 44.3136 27.8498C45.1124 28.2323 46.0742 27.8948 46.4624 27.096C46.7605 26.4717 46.6255 25.7235 46.1249 25.2398Z" fill="#896024"/>
<rect width="72" height="72" fill="" style="mix-blend-mode:saturation"/>
</g>
<defs>
<radialGradient id="paint0_radial_10_3856" cx="0" cy="0" r="1" gradientUnits="userSpaceOnUse" gradientTransform="translate(35.7754 35.3812) scale(32.04)">
<stop offset="0.5" stop-color="#FDE030"/>
<stop offset="0.92" stop-color="#F7C02B"/>
<stop offset="1" stop-color="#F4A223"/>
</radialGradient>
<clipPath id="clip0_10_3856">
<rect width="72" height="72" fill="white"/>
</clipPath>
</defs>
</svg>
