<svg width="72" height="72" viewBox="0 0 72 72" fill="none" xmlns="http://www.w3.org/2000/svg">
<g clip-path="url(#clip0_10_3876)">
<path d="M35.7754 66.825C20.0816 66.825 3.15039 56.9813 3.15039 35.3813C3.15039 13.7812 20.0816 3.9375 35.7754 3.9375C44.4941 3.9375 52.5379 6.80625 58.5004 12.0375C64.9691 17.775 68.4004 25.875 68.4004 35.3813C68.4004 44.8875 64.9691 52.9313 58.5004 58.6688C52.5379 63.9 44.4379 66.825 35.7754 66.825Z" fill="url(#paint0_radial_10_3876)"/>
<path d="M62.7132 16.6895C65.7113 21.527 67.2751 27.287 67.2751 33.6938C67.2751 43.2001 63.8438 51.2438 57.3751 56.9813C51.4126 62.2126 43.3126 65.1376 34.6501 65.1376C24.4913 65.1376 13.8151 61.0032 7.54883 52.2338C13.6013 62.1676 24.9807 66.8251 35.7751 66.8251C44.4376 66.8251 52.5376 63.9001 58.5001 58.6688C64.9688 52.9313 68.4001 44.8876 68.4001 35.3813C68.4001 28.2151 66.4482 21.8476 62.7132 16.6895Z" fill="#EB8F00"/>
<path opacity="0.8" d="M15.3281 50.248C20.7647 50.248 25.1719 45.8408 25.1719 40.4043C25.1719 34.9677 20.7647 30.5605 15.3281 30.5605C9.89157 30.5605 5.48438 34.9677 5.48438 40.4043C5.48438 45.8408 9.89157 50.248 15.3281 50.248Z" fill="url(#paint1_radial_10_3876)"/>
<path opacity="0.8" d="M56.6719 50.248C62.1084 50.248 66.5156 45.8408 66.5156 40.4043C66.5156 34.9677 62.1084 30.5605 56.6719 30.5605C51.2353 30.5605 46.8281 34.9677 46.8281 40.4043C46.8281 45.8408 51.2353 50.248 56.6719 50.248Z" fill="url(#paint2_radial_10_3876)"/>
<path d="M27.5404 32.0004C27.5404 32.0004 27.5123 31.961 27.4504 31.8879L27.2142 31.5841C27.1298 31.4941 27.0286 31.3873 26.9104 31.2635C26.7923 31.1285 26.6461 30.9879 26.4998 30.8416C26.3479 30.701 26.1904 30.5548 26.0273 30.4366C25.8698 30.3073 25.6954 30.2116 25.5548 30.1329C25.4086 30.0429 25.2736 30.0204 25.1892 29.9923C25.1442 29.9754 25.1048 29.9754 25.0711 29.9698C25.0542 29.9754 25.0373 29.9641 25.0204 29.9698L24.9979 29.9754H24.9811C25.0486 29.9754 24.8292 29.981 25.1329 29.9698L24.8236 29.981C24.7448 29.981 24.7954 29.9866 24.8011 29.9866C24.8179 29.9866 24.8292 29.9866 24.8404 29.981C24.8854 29.9641 24.8404 29.981 24.8292 29.981C24.8076 29.982 24.7864 29.9878 24.7673 29.9979C24.6773 30.026 24.5423 30.0485 24.4017 30.1385C24.2611 30.2173 24.0867 30.3129 23.9292 30.4423C23.7717 30.566 23.6086 30.7066 23.4567 30.8473C23.1642 31.1341 22.9054 31.421 22.7254 31.6291C22.5398 31.8429 22.4386 31.9666 22.4386 31.9666L22.3092 32.1185C21.5386 33.0185 20.1211 33.1704 19.1479 32.4616C18.4842 31.9779 18.1973 31.2241 18.3211 30.5041C18.3211 30.5041 18.3604 30.2735 18.4729 29.8741C18.5911 29.4748 18.7879 28.9066 19.1761 28.2373C19.5642 27.5735 20.1267 26.7916 21.0773 26.0773C21.5442 25.7285 22.1123 25.3798 22.7873 25.1435C22.9504 25.0816 23.1248 25.0254 23.3048 24.9804C23.4904 24.9354 23.6367 24.8848 23.8898 24.851L24.2386 24.8004C24.3454 24.7891 24.5029 24.7723 24.5254 24.7723L24.8348 24.7498L25.0092 24.7441H25.0598L25.1329 24.7498H25.2679L25.5548 24.7666C25.7461 24.7835 25.9317 24.8173 26.1173 24.8454C26.4829 24.9129 26.8486 25.0085 27.1804 25.1323C27.7958 25.3521 28.3728 25.6672 28.8904 26.066C29.8411 26.7804 30.4036 27.5623 30.7917 28.226C30.9886 28.5579 31.1348 28.8729 31.2417 29.1485C31.3598 29.4129 31.4442 29.6941 31.5117 29.9023C31.5736 30.1048 31.5736 30.2116 31.6017 30.3073C31.6186 30.3973 31.6242 30.4479 31.6242 30.4479C31.8323 31.5841 30.9942 32.6585 29.7623 32.8441C28.8792 32.9848 28.0298 32.6304 27.5404 32.0004ZM49.7592 32.0004C49.7592 32.0004 49.7311 31.961 49.6692 31.8879L49.4329 31.5841C49.3486 31.4941 49.2473 31.3873 49.1292 31.2635C49.0111 31.1285 48.8648 30.9879 48.7186 30.8416C48.5667 30.701 48.4092 30.5548 48.2461 30.4366C48.0886 30.3073 47.9142 30.2116 47.7736 30.1329C47.6273 30.0429 47.4923 30.0204 47.4079 29.9923C47.3629 29.9754 47.3236 29.9754 47.2898 29.9698C47.2729 29.9754 47.2561 29.9641 47.2392 29.9698L47.2167 29.9754H47.1942C47.2617 29.9754 47.0423 29.981 47.3461 29.9698L47.0367 29.981C46.9579 29.981 47.0086 29.9866 47.0142 29.9866C47.0311 29.9866 47.0423 29.9866 47.0536 29.981C47.0986 29.9641 47.0536 29.981 47.0423 29.981C47.0207 29.982 46.9996 29.9878 46.9804 29.9979C46.8904 30.026 46.7554 30.0485 46.6148 30.1385C46.4742 30.2173 46.2998 30.3129 46.1423 30.4423C45.9848 30.566 45.8217 30.7066 45.6698 30.8473C45.3773 31.1341 45.1186 31.421 44.9386 31.6291C44.7529 31.8429 44.6517 31.9666 44.6517 31.9666L44.5223 32.1185C43.7517 33.0185 42.3342 33.1704 41.3611 32.4616C40.6973 31.9779 40.4104 31.2241 40.5342 30.5041C40.5342 30.5041 40.5736 30.2735 40.6861 29.8741C40.8042 29.4748 41.0011 28.9066 41.3892 28.2373C41.7773 27.5735 42.3398 26.7916 43.2904 26.0773C43.7573 25.7285 44.3254 25.3798 45.0004 25.1435C45.1636 25.0816 45.3379 25.0254 45.5179 24.9804C45.7036 24.9354 45.8498 24.8848 46.1029 24.851L46.4517 24.8004C46.5586 24.7891 46.7161 24.7723 46.7386 24.7723L47.0479 24.7498L47.2223 24.7441H47.2729L47.3461 24.7498H47.4811L47.7679 24.7666C47.9592 24.7835 48.1448 24.8173 48.3304 24.8454C48.6961 24.9129 49.0617 25.0085 49.3936 25.1323C50.0089 25.3521 50.5859 25.6672 51.1036 26.066C52.0542 26.7804 52.6167 27.5623 53.0048 28.226C53.2017 28.5579 53.3479 28.8729 53.4548 29.1485C53.5729 29.4129 53.6573 29.6941 53.7248 29.9023C53.7867 30.1048 53.7867 30.2116 53.8148 30.3073C53.8317 30.3973 53.8373 30.4479 53.8373 30.4479C54.0454 31.5841 53.2073 32.6585 51.9754 32.8441C51.0923 32.9848 50.2429 32.6304 49.7592 32.0004ZM36.0117 52.8691C28.9411 52.8691 23.3498 49.5223 20.2673 45.9391C19.9579 45.5791 19.8848 45.0954 20.0817 44.6735C20.2786 44.2404 20.7061 43.9591 21.1673 43.9591C21.3754 43.9591 21.5892 44.0154 21.7748 44.1223C24.9529 45.956 30.2911 48.2229 35.9948 48.2229H36.0848C41.7942 48.2229 47.1267 45.9504 50.3048 44.1223C50.4961 44.0154 50.7042 43.9535 50.9123 43.9591C51.3736 43.9591 51.8011 44.2404 51.9979 44.6735C52.1892 45.0954 52.1217 45.5848 51.8123 45.9391C48.7298 49.5166 43.1329 52.8691 36.0679 52.8691" fill="#422B0D"/>
<rect width="72" height="72" fill="black" style="mix-blend-mode:saturation"/>
</g>
<defs>
<radialGradient id="paint0_radial_10_3876" cx="0" cy="0" r="1" gradientUnits="userSpaceOnUse" gradientTransform="translate(35.7754 35.3813) scale(32.04)">
<stop offset="0.5" stop-color="#FDE030"/>
<stop offset="0.919" stop-color="#F7C02B"/>
<stop offset="1" stop-color="#F4A223"/>
</radialGradient>
<radialGradient id="paint1_radial_10_3876" cx="0" cy="0" r="1" gradientUnits="userSpaceOnUse" gradientTransform="translate(15.3286 40.4033) scale(10.7087 10.1727)">
<stop stop-color="#ED7770"/>
<stop offset="0.9" stop-color="#ED7770" stop-opacity="0"/>
</radialGradient>
<radialGradient id="paint2_radial_10_3876" cx="0" cy="0" r="1" gradientUnits="userSpaceOnUse" gradientTransform="translate(56.6729 40.4033) scale(10.7087 10.1727)">
<stop stop-color="#ED7770"/>
<stop offset="0.9" stop-color="#ED7770" stop-opacity="0"/>
</radialGradient>
<clipPath id="clip0_10_3876">
<rect width="72" height="72" fill="white"/>
</clipPath>
</defs>
</svg>
