<svg width="72" height="72" viewBox="0 0 72 72" fill="none" xmlns="http://www.w3.org/2000/svg">
<g clip-path="url(#clip0_10_3885)">
<path d="M35.7754 66.825C20.0816 66.825 3.15039 56.9813 3.15039 35.3813C3.15039 13.7812 20.0816 3.9375 35.7754 3.9375C44.4941 3.9375 52.5379 6.80625 58.5004 12.0375C64.9691 17.775 68.4004 25.875 68.4004 35.3813C68.4004 44.8875 64.9691 52.9313 58.5004 58.6688C52.5379 63.9 44.4379 66.825 35.7754 66.825Z" fill="url(#paint0_radial_10_3885)"/>
<path d="M62.7132 16.6895C65.7113 21.527 67.2751 27.287 67.2751 33.6938C67.2751 43.2001 63.8438 51.2438 57.3751 56.9813C51.4126 62.2126 43.3126 65.1376 34.6501 65.1376C24.4913 65.1376 13.8376 61.0032 7.54883 52.2338C13.6013 62.1676 24.9863 66.8251 35.7751 66.8251C44.4376 66.8251 52.5376 63.9001 58.5001 58.6688C64.9688 52.9313 68.4001 44.8876 68.4001 35.3813C68.4001 28.2151 66.4482 21.8476 62.7132 16.6895Z" fill="#EB8F00"/>
<path d="M46.4904 18.9111C48.6335 18.9111 50.5741 22.0893 50.5741 27.3486C50.5741 32.608 48.6335 35.7861 46.4904 35.7861C44.3529 35.7861 42.4122 32.6136 42.4122 27.3486C42.4122 22.0836 44.3529 18.9111 46.4904 18.9111ZM25.4641 18.9111C23.186 18.9111 21.1104 22.0893 21.1104 27.3486C21.1104 32.608 23.186 35.7861 25.4641 35.7861C27.7479 35.7861 29.8235 32.6136 29.8235 27.3486C29.8235 22.0836 27.7479 18.9111 25.4641 18.9111Z" fill="#422B0D"/>
<path d="M25.3406 20.9761C25.0131 20.7799 24.6211 20.7219 24.2509 20.8147C23.8806 20.9075 23.5624 21.1436 23.3662 21.4711C23.355 21.4936 23.3381 21.5161 23.3268 21.5386C22.8093 22.1404 22.8712 23.0517 23.4731 23.5692C23.49 23.5861 23.5068 23.5973 23.5293 23.6142C24.2043 24.0248 25.0875 23.8054 25.4981 23.1304C25.515 23.1023 25.5262 23.0798 25.5431 23.0517C26.0606 22.4442 25.9931 21.5329 25.3856 21.0154C25.372 21.0007 25.3569 20.9875 25.3406 20.9761ZM46.8056 20.9761C46.1193 20.5711 45.2306 20.7961 44.8256 21.4823C44.8143 21.4992 44.8031 21.5217 44.7918 21.5386C44.2799 22.1517 44.3643 23.0573 44.9775 23.5692C44.9831 23.5748 44.9943 23.5804 45 23.5861C45.675 23.9967 46.5581 23.7773 46.9687 23.1023C46.9856 23.0742 46.9968 23.0517 47.0137 23.0236C47.5256 22.4104 47.4412 21.5048 46.8281 20.9929C46.8225 20.9873 46.8112 20.9817 46.8056 20.9761Z" fill="#896024"/>
<path d="M57.4141 40.2863C57.0337 39.5988 56.4183 39.0714 55.6807 38.8008C54.9431 38.5301 54.1326 38.5343 53.3978 38.8125C47.6255 40.494 41.6406 41.3333 35.6285 41.3044C29.6163 41.3333 23.6314 40.494 17.8591 38.8125C17.1264 38.534 16.3179 38.5286 15.5815 38.7971C14.8451 39.0656 14.2299 39.5903 13.8485 40.275C13.0835 41.6869 13.6347 43.3238 14.2816 44.7357C17.8928 52.6669 25.8522 57.4144 35.5835 57.4425H35.6735C45.4047 57.4425 53.3641 52.6669 56.981 44.7357C57.6222 43.3125 58.1791 41.6982 57.4141 40.2863Z" fill="#422B0D"/>
<path d="M44.6343 55.2039C44.4262 55.0126 44.2125 54.8383 43.9987 54.6414C41.702 52.6214 38.7317 51.5356 35.6737 51.5983C32.5237 51.5476 29.4581 52.5939 27 54.5626C26.7862 54.737 26.5612 54.9058 26.3531 55.1251C26.145 55.3445 26.0325 55.502 25.8975 55.6876C28.9912 56.897 32.2875 57.5158 35.6118 57.4989H35.7018C38.8856 57.4989 42.0412 56.9308 45.0225 55.8114C44.91 55.5976 44.7806 55.3951 44.6343 55.2039Z" fill="#ED7770"/>
<path d="M53.398 38.8126C47.6256 40.4941 41.6408 41.3333 35.6286 41.3045C29.6164 41.3333 23.6316 40.4941 17.8592 38.8126C17.1265 38.5341 16.318 38.5287 15.5816 38.7972C14.8452 39.0657 14.23 39.5903 13.8486 40.2751C13.7361 40.4889 13.6461 40.7139 13.5898 40.9445C13.7755 41.0401 13.9892 41.1357 14.2423 41.237C21.0146 44.6281 28.4997 46.3504 36.073 46.2601C43.3348 46.3445 50.5123 44.7639 57.0711 41.6476C57.3355 41.5351 57.5548 41.4282 57.7517 41.327C57.7067 40.9614 57.5886 40.6014 57.4142 40.2751C57.0328 39.5889 56.4167 39.0632 55.6789 38.7946C54.9412 38.5259 54.1314 38.5323 53.398 38.8126Z" fill="white"/>
<path d="M57.4366 40.2919C57.0504 39.6028 56.4302 39.0747 55.6883 38.8033C54.9464 38.532 54.1319 38.5352 53.3922 38.8125C47.621 40.4944 41.636 41.3325 35.6285 41.3044C29.6163 41.3333 23.6314 40.494 17.8591 38.8125C17.1264 38.534 16.3179 38.5286 15.5815 38.7971C14.8451 39.0656 14.2299 39.5903 13.8485 40.275C13.0835 41.6869 13.6347 43.3238 14.2816 44.7357C14.5685 45.3713 14.8891 45.9957 15.2435 46.5975C15.2435 46.5975 14.0622 42.2213 15.086 40.95C15.2575 40.6842 15.4898 40.463 15.7636 40.3046C16.0375 40.1462 16.345 40.0551 16.661 40.0388C16.9253 40.0388 17.1841 40.0838 17.4372 40.1625C23.3097 41.8894 29.4016 42.7613 35.5272 42.75H35.7241C41.8497 42.7613 47.9416 41.8894 53.8141 40.1625C54.0672 40.0838 54.326 40.0388 54.5903 40.0388C55.2316 40.0725 55.8222 40.41 56.171 40.95C57.2116 42.2213 56.0135 46.6144 56.0135 46.6144C56.3622 46.0125 56.711 45.3938 57.0035 44.7525C57.6447 43.3407 58.2016 41.7094 57.4366 40.2919Z" fill="#EB8F00"/>
<rect width="72" height="72" fill="black" style="mix-blend-mode:saturation"/>
</g>
<defs>
<radialGradient id="paint0_radial_10_3885" cx="0" cy="0" r="1" gradientUnits="userSpaceOnUse" gradientTransform="translate(35.7754 35.3812) scale(32.04)">
<stop offset="0.5" stop-color="#FDE030"/>
<stop offset="0.92" stop-color="#F7C02B"/>
<stop offset="1" stop-color="#F4A223"/>
</radialGradient>
<clipPath id="clip0_10_3885">
<rect width="72" height="72" fill="white"/>
</clipPath>
</defs>
</svg>
