<svg width="72" height="72" viewBox="0 0 72 72" fill="none" xmlns="http://www.w3.org/2000/svg">
<path d="M35.7754 66.825C20.0816 66.825 3.15039 56.9813 3.15039 35.3813C3.15039 13.7812 20.0816 3.9375 35.7754 3.9375C44.4941 3.9375 52.5379 6.80625 58.5004 12.0375C64.9691 17.775 68.4004 25.875 68.4004 35.3813C68.4004 44.8875 64.9691 52.9313 58.5004 58.6688C52.5379 63.9 44.4379 66.825 35.7754 66.825Z" fill="url(#paint0_radial_10_3866)"/>
<path d="M24.75 23.0283C22.3931 23.0283 20.25 25.0196 20.25 28.3271C20.25 31.6346 22.3931 33.6202 24.75 33.6202C27.1125 33.6202 29.25 31.6289 29.25 28.3271C29.25 25.0252 27.135 23.0283 24.75 23.0283Z" fill="#422B0D"/>
<path d="M24.5536 25.2398C24.1684 25.0566 23.7264 25.033 23.324 25.1741C22.9215 25.3153 22.5911 25.6098 22.4048 25.9935C22.1067 26.6179 22.2417 27.366 22.7423 27.8498C23.5411 28.2323 24.5029 27.8948 24.8911 27.096C25.1892 26.4717 25.0542 25.7235 24.5536 25.2398Z" fill="#896024"/>
<path d="M46.3496 23.0283C43.9927 23.0283 41.8496 25.0196 41.8496 28.3271C41.8496 31.6346 43.9927 33.6202 46.3496 33.6202C48.7065 33.6202 50.8496 31.6289 50.8496 28.3271C50.8496 25.0252 48.7065 23.0283 46.3496 23.0283Z" fill="#422B0D"/>
<path d="M46.1249 25.2398C45.7397 25.0566 45.2977 25.033 44.8953 25.1741C44.4928 25.3153 44.1624 25.6098 43.9761 25.9935C43.678 26.6179 43.813 27.366 44.3136 27.8498C45.1124 28.2323 46.0742 27.8948 46.4624 27.096C46.7605 26.4717 46.6255 25.7235 46.1249 25.2398Z" fill="#896024"/>
<path d="M35.4378 51.5307C30.3359 51.5701 25.4647 49.427 22.0503 45.6357C21.7916 45.3376 21.7297 44.9157 21.8928 44.5557C22.0559 44.1901 22.4159 43.9539 22.8153 43.9482C22.9953 43.9482 23.1753 43.9989 23.3328 44.0889C26.0441 45.647 30.5778 47.582 35.4378 47.582H35.5166C40.3709 47.582 44.9103 45.647 47.6159 44.0889C47.7734 43.9989 47.9534 43.9482 48.1334 43.9482C48.5328 43.9539 48.8928 44.1901 49.0559 44.5557C49.2247 44.9157 49.1628 45.3376 48.8984 45.6357C47.2095 47.5106 45.1418 49.0056 42.832 50.0218C40.5222 51.038 38.023 51.5523 35.4997 51.5307" fill="#422B0D"/>
<path d="M62.7132 16.6895C65.7113 21.527 67.2751 27.287 67.2751 33.6938C67.2751 43.2001 63.8438 51.2438 57.3751 56.9813C51.4126 62.2126 43.3126 65.1376 34.6501 65.1376C24.4913 65.1376 13.8376 61.0032 7.54883 52.2338C13.6013 62.1676 24.9863 66.8251 35.7751 66.8251C44.4376 66.8251 52.5376 63.9001 58.5001 58.6688C64.9688 52.9313 68.4001 44.8876 68.4001 35.3813C68.4001 28.2151 66.4482 21.8476 62.7132 16.6895Z" fill="#EB8F00"/>
<defs>
<radialGradient id="paint0_radial_10_3866" cx="0" cy="0" r="1" gradientUnits="userSpaceOnUse" gradientTransform="translate(35.7754 35.3812) scale(32.04)">
<stop offset="0.5" stop-color="#FDE030"/>
<stop offset="0.92" stop-color="#F7C02B"/>
<stop offset="1" stop-color="#F4A223"/>
</radialGradient>
</defs>
</svg>
