<svg width="72" height="72" viewBox="0 0 72 72" fill="none" xmlns="http://www.w3.org/2000/svg">
<g clip-path="url(#clip0_10_3849)">
<path d="M35.7754 66.825C20.0816 66.825 3.15039 56.9813 3.15039 35.3813C3.15039 13.7812 20.0816 3.9375 35.7754 3.9375C44.4941 3.9375 52.5379 6.80625 58.5004 12.0375C64.9691 17.775 68.4004 25.875 68.4004 35.3813C68.4004 44.8875 64.9691 52.9313 58.5004 58.6688C52.5379 63.9 44.4379 66.825 35.7754 66.825Z" fill="url(#paint0_radial_10_3849)"/>
<path d="M62.7132 16.6895C65.7113 21.527 67.2751 27.287 67.2751 33.6938C67.2751 43.2001 63.8438 51.2438 57.3751 56.9813C51.4126 62.2126 43.3126 65.1376 34.6501 65.1376C24.4913 65.1376 13.8376 61.0032 7.54883 52.2338C13.6013 62.1676 24.9863 66.8251 35.7751 66.8251C44.4376 66.8251 52.5376 63.9001 58.5001 58.6688C64.9688 52.9313 68.4001 44.8876 68.4001 35.3813C68.4001 28.2151 66.4482 21.8476 62.7132 16.6895Z" fill="#EB8F00"/>
<path d="M46.4398 52.2278C46.4398 56.4915 41.7654 58.9778 35.9998 58.9778C30.2341 58.9778 25.5598 56.4747 25.5598 52.2278C25.5598 47.9809 30.2341 43.3122 35.9998 43.3122C41.7654 43.3122 46.4398 47.964 46.4398 52.2278ZM26.0266 31.8372L30.7854 27.4103C31.4604 26.5722 31.5616 25.4415 30.881 24.7665C29.9866 23.8665 28.4004 24.0859 27.5398 25.1097C27.4948 25.194 27.461 25.2165 27.416 25.3009L24.041 30.2059L19.4735 25.9478C19.406 25.8747 19.3666 25.8634 19.3048 25.7903C18.2416 24.9803 16.6441 25.1153 15.9748 26.1897C15.4516 26.9997 15.8004 28.074 16.6441 28.749L22.4998 32.2197L17.5385 36.8603C16.8748 37.6872 16.751 38.8122 17.4373 39.504C18.326 40.4097 19.9123 40.2015 20.7785 39.1834C20.8235 39.099 20.8573 39.0765 20.9079 38.9922L24.4629 33.8509L28.7829 37.9234C28.8504 37.9965 28.8898 38.0134 28.9516 38.0865C30.0091 38.9022 31.6066 38.7784 32.2873 37.7097C32.8104 36.8997 32.4673 35.8197 31.6291 35.1447L26.0266 31.8372ZM47.6716 31.8372L42.9129 27.4103C42.2379 26.5722 42.1366 25.4415 42.8229 24.7665C43.7173 23.8665 45.2979 24.0859 46.1585 25.1097C46.2035 25.194 46.2429 25.2165 46.2879 25.3009L49.6629 30.2059L54.236 25.9478C54.2979 25.8747 54.3373 25.8634 54.3991 25.7903C55.4679 24.9803 57.0598 25.1153 57.7348 26.1897C58.2523 26.9997 57.9035 28.074 57.0598 28.749L51.1873 32.2197L56.1485 36.8603C56.8291 37.6984 56.9416 38.8234 56.2554 39.504C55.3723 40.4097 53.786 40.2015 52.9198 39.1834C52.8691 39.099 52.8354 39.0765 52.7904 38.9922L49.2354 33.8509L44.9098 37.9234C44.8479 37.9965 44.8085 38.0134 44.741 38.0865C43.6835 38.9022 42.0916 38.7784 41.411 37.7097C40.8823 36.8997 41.2254 35.8197 42.0635 35.1447L47.6716 31.8372ZM25.6498 16.2559C26.9435 16.3684 27.4498 14.6247 26.0998 14.2309C25.0366 13.944 23.9341 13.8315 22.8373 13.8934C19.8616 14.0059 17.0435 15.2547 14.9623 17.3809C14.006 18.3934 15.356 19.6309 16.3685 18.8997C19.0785 17.003 22.3471 16.0719 25.6498 16.2559ZM46.2373 16.2559C49.556 16.0647 52.8466 16.9928 55.5748 18.8997C56.5873 19.6309 57.9373 18.3934 56.981 17.3809C54.8915 15.2644 52.0776 14.0182 49.106 13.8934C48.0091 13.8315 46.9066 13.944 45.8435 14.2309C45.2923 14.3884 44.9716 14.9565 45.1291 15.5078C45.2641 15.9972 45.7366 16.3122 46.2373 16.2559Z" fill="#422B0D"/>
<rect width="72" height="72" fill="" style="mix-blend-mode:saturation"/>
</g>
<defs>
<radialGradient id="paint0_radial_10_3849" cx="0" cy="0" r="1" gradientUnits="userSpaceOnUse" gradientTransform="translate(35.7754 35.3812) scale(32.04)">
<stop offset="0.5" stop-color="#FDE030"/>
<stop offset="0.92" stop-color="#F7C02B"/>
<stop offset="1" stop-color="#F4A223"/>
</radialGradient>
<clipPath id="clip0_10_3849">
<rect width="72" height="72" fill="white"/>
</clipPath>
</defs>
</svg>
